<svg xmlns="http://www.w3.org/2000/svg" width="200" height="50" viewBox="0 0 200 50"><rect width="100%" height="100%" fill="#D4AF37"/><path fill="#FFFFFF" d="M43.36 26.51h3.68l-1.41-3.85q-.1-.25-.21-.6-.12-.36-.23-.76-.1.4-.21.76-.12.36-.22.62zm2.94-7.2 4.54 11.57h-1.66q-.28 0-.46-.14t-.26-.35l-.87-2.36H42.8l-.86 2.36q-.07.19-.25.34-.19.15-.46.15h-1.68l4.55-11.57zm10.88 4.25-.44.71q-.08.13-.17.18t-.23.05-.3-.08l-.38-.18q-.22-.1-.5-.18-.27-.08-.65-.08-.58 0-.91.25-.34.25-.34.65 0 .26.18.44.17.18.45.32.29.14.65.24.36.11.73.24t.73.29q.36.17.64.42.29.25.46.6t.17.85q0 .59-.21 1.09t-.63.87q-.41.36-1.03.56-.61.21-1.41.21-.42 0-.83-.08-.4-.07-.77-.21t-.69-.32-.56-.4l.46-.75q.09-.14.21-.21t.3-.07q.19 0 .35.1.16.11.38.23t.51.22.74.1q.35 0 .6-.08t.42-.22q.16-.14.24-.32.07-.18.07-.37 0-.29-.17-.47t-.45-.32q-.29-.14-.65-.24-.37-.11-.75-.24t-.74-.3-.65-.44q-.28-.26-.45-.64-.18-.39-.18-.93 0-.51.2-.96.2-.46.59-.8t.97-.54q.58-.21 1.34-.21.85 0 1.54.28.7.28 1.16.74m1.64-.89h1.99v8.21h-1.99zm2.26-2.39q0 .26-.1.48-.11.22-.28.39t-.4.27q-.24.1-.5.1t-.48-.1q-.23-.1-.4-.27t-.27-.39-.1-.48.1-.5q.1-.23.27-.4.17-.16.4-.26.22-.1.48-.1t.5.1q.23.1.4.26.17.17.28.4.1.24.1.5m6.08 8.48v-1.38q-.86.04-1.44.14-.58.11-.94.28-.35.17-.5.39-.15.23-.15.49 0 .52.31.74.3.23.8.23.61 0 1.05-.22.45-.22.87-.67m-4.18-4.31-.35-.63q1.42-1.3 3.41-1.3.72 0 1.29.24.57.23.96.65t.59 1.01q.21.58.21 1.28v5.18h-.9q-.28 0-.43-.08-.15-.09-.24-.34l-.18-.6q-.31.28-.6.5-.3.21-.62.35-.32.15-.68.22-.37.08-.81.08-.52 0-.96-.14t-.76-.42-.49-.7q-.18-.41-.18-.97 0-.31.1-.62.11-.3.34-.58.24-.28.62-.53.37-.25.92-.43.55-.19 1.28-.3.72-.12 1.66-.14v-.48q0-.83-.35-1.22-.35-.4-1.02-.4-.48 0-.79.11-.32.11-.56.25t-.44.26q-.19.11-.43.11-.21 0-.35-.11-.15-.11-.24-.25m20.24-5.14v1.77h-3.48v9.8h-2.16v-9.8H74.1v-1.77zm2.96 3.86.12.93q.38-.74.91-1.16t1.25-.42q.56 0 .91.25l-.13 1.48q-.04.14-.12.2-.07.06-.2.06-.12 0-.36-.04-.23-.04-.46-.04-.32 0-.58.1-.26.09-.46.27t-.36.44-.29.58v5.06h-1.98v-8.21h1.16q.31 0 .43.11t.16.39m8.56 5.59v-1.38q-.86.04-1.44.14-.59.11-.94.28t-.5.39q-.16.23-.16.49 0 .52.31.74.31.23.81.23.6 0 1.05-.22.44-.22.87-.67m-4.18-4.31-.35-.63q1.41-1.3 3.41-1.3.72 0 1.28.24.57.23.96.65.4.42.6 1.01.2.58.2 1.28v5.18h-.89q-.28 0-.43-.08-.16-.09-.24-.34l-.18-.6q-.31.28-.61.5-.29.21-.61.35-.32.15-.69.22-.36.08-.8.08-.52 0-.96-.14t-.76-.42-.5-.7q-.17-.41-.17-.97 0-.31.1-.62.1-.3.34-.58t.61-.53q.38-.25.93-.43.54-.19 1.27-.3.73-.12 1.67-.14v-.48q0-.83-.36-1.22-.35-.4-1.01-.4-.48 0-.8.11-.31.11-.55.25t-.44.26q-.2.11-.44.11-.2 0-.35-.11-.14-.11-.23-.25m9.67-1.42.14.65q.25-.25.52-.46.28-.21.59-.36.3-.15.66-.23.35-.09.76-.09.68 0 1.2.23t.86.64q.35.41.53.99.18.57.18 1.26v5.22h-1.97v-5.22q0-.76-.35-1.17-.34-.41-1.05-.41-.51 0-.96.23-.44.23-.84.63v5.94h-1.98v-8.21h1.21q.38 0 .5.36m12.77.53-.45.71q-.08.13-.17.18-.08.05-.22.05t-.31-.08q-.16-.08-.38-.18-.21-.1-.49-.18t-.65-.08q-.59 0-.92.25t-.33.65q0 .26.17.44t.46.32q.28.14.64.24.36.11.73.24.38.13.74.29.36.17.64.42t.46.6q.17.35.17.85 0 .59-.21 1.09-.22.5-.63.87-.42.36-1.03.56-.61.21-1.41.21-.43 0-.83-.08-.4-.07-.78-.21-.37-.14-.68-.32-.32-.18-.56-.4l.46-.75q.08-.14.2-.21t.31-.07q.18 0 .35.1.16.11.38.23.21.12.5.22.3.1.74.1.36 0 .61-.08t.41-.22q.17-.14.24-.32.08-.18.08-.37 0-.29-.17-.47t-.46-.32q-.28-.14-.65-.24-.36-.11-.74-.24t-.74-.3q-.37-.17-.65-.44-.29-.26-.46-.64-.17-.39-.17-.93 0-.51.2-.96.2-.46.59-.8t.97-.54q.58-.21 1.34-.21.84 0 1.54.28t1.16.74m1.6-4.57h1.98v11.89h-1.98zm8.29 9.77v-1.38q-.86.04-1.44.14-.59.11-.94.28t-.5.39q-.15.23-.15.49 0 .52.3.74.31.23.81.23.61 0 1.05-.22t.87-.67m-4.18-4.31-.35-.63q1.42-1.3 3.41-1.3.72 0 1.29.24.56.23.96.65.39.42.59 1.01.21.58.21 1.28v5.18h-.9q-.28 0-.43-.08-.15-.09-.24-.34l-.18-.6q-.31.28-.61.5-.29.21-.61.35-.32.15-.69.22-.36.08-.8.08-.52 0-.96-.14t-.76-.42-.5-.7q-.17-.41-.17-.97 0-.31.1-.62.11-.3.34-.58.24-.28.61-.53.38-.25.93-.43.55-.19 1.27-.3.73-.12 1.67-.14v-.48q0-.83-.35-1.22-.36-.4-1.02-.4-.48 0-.8.11-.31.11-.55.25t-.44.26q-.19.11-.43.11-.21 0-.36-.11-.14-.11-.23-.25m10.7 6.56q-1.07 0-1.65-.61-.57-.6-.57-1.66v-4.59h-.84q-.16 0-.27-.1-.11-.11-.11-.31v-.79l1.32-.21.41-2.24q.04-.16.16-.25.11-.09.28-.09h1.03v2.58h2.19v1.41h-2.19v4.45q0 .38.19.6.18.22.51.22.19 0 .31-.05.12-.04.22-.09l.16-.09q.07-.05.14-.05.09 0 .15.05.05.04.12.13l.59.96q-.43.36-.99.54-.56.19-1.16.19m3.28-8.34h1.98v8.21h-1.98zm2.25-2.39q0 .26-.1.48t-.28.39q-.17.17-.4.27t-.5.1q-.25 0-.48-.1t-.4-.27q-.16-.17-.26-.39t-.1-.48.1-.5q.1-.23.26-.4.17-.16.4-.26t.48-.1q.27 0 .5.1t.4.26q.18.17.28.4.1.24.1.5m5.38 2.26q.91 0 1.66.3t1.28.84.82 1.33q.29.78.29 1.75 0 .98-.29 1.76t-.82 1.34q-.53.55-1.28.84-.75.3-1.66.3-.92 0-1.67-.3-.75-.29-1.29-.84-.53-.56-.82-1.34t-.29-1.76q0-.97.29-1.75.29-.79.82-1.33.54-.54 1.29-.84t1.67-.3m0 6.94q1.02 0 1.52-.69.49-.69.49-2.01 0-1.33-.49-2.03-.5-.69-1.52-.69-1.04 0-1.54.7t-.5 2.02.5 2.01 1.54.69m7.27-6.45.14.65q.25-.25.52-.46.28-.21.59-.36.3-.15.66-.23.35-.09.76-.09.68 0 1.2.23t.86.64q.35.41.53.99.18.57.18 1.26v5.22h-1.97v-5.22q0-.76-.35-1.17-.34-.41-1.05-.41-.51 0-.96.23-.44.23-.84.63v5.94h-1.98v-8.21h1.21q.38 0 .5.36m12.77.53-.45.71q-.08.13-.17.18-.08.05-.22.05t-.31-.08q-.16-.08-.38-.18-.21-.1-.49-.18t-.65-.08q-.59 0-.92.25t-.33.65q0 .26.17.44t.46.32q.28.14.64.24.36.11.73.24.38.13.74.29.36.17.64.42t.46.6q.17.35.17.85 0 .59-.21 1.09-.22.5-.63.87-.42.36-1.03.56-.61.21-1.41.21-.43 0-.83-.08-.4-.07-.78-.21-.37-.14-.68-.32-.32-.18-.56-.4l.46-.75q.08-.14.2-.21t.31-.07q.18 0 .35.1.16.11.38.23.21.12.5.22.3.1.74.1.36 0 .61-.08t.41-.22q.17-.14.24-.32.08-.18.08-.37 0-.29-.17-.47t-.46-.32q-.28-.14-.65-.24-.36-.11-.74-.24t-.74-.3q-.37-.17-.65-.44-.29-.26-.46-.64-.17-.39-.17-.93 0-.51.2-.96.2-.46.59-.8t.97-.54q.58-.21 1.34-.21.84 0 1.54.28t1.16.74"/></svg>